<svg xmlns="http://www.w3.org/2000/svg" viewBox="0 0 800 550">
  <rect width="800" height="550" fill="#fdf0d5" rx="12"/>
  <text x="400" y="45" font-size="26" font-weight="bold" text-anchor="middle" fill="#3d5a80">Valencia</text>
  <line x1="320" y1="120" x2="520" y2="100" stroke="#e07a5f" stroke-width="3" stroke-dasharray="8,4"/>
  <text x="420" y="95" font-size="14" fill="#e07a5f" text-anchor="middle">5 min lopen</text>
  <line x1="260" y1="180" x2="260" y2="340" stroke="#e07a5f" stroke-width="3" stroke-dasharray="4,4"/>
  <text x="250" y="260" font-size="14" fill="#e07a5f" text-anchor="end">15 min metro</text>
  <rect x="200" y="120" width="120" height="60" rx="30" fill="#e07a5f"/>
  <text x="260" y="150" font-size="16" font-weight="bold" fill="white" text-anchor="middle">Airbnb</text>
  <text x="260" y="168" font-size="13" fill="white" text-anchor="middle">La Cabanyal</text>
  <rect x="450" y="80" width="140" height="50" rx="25" fill="#81c3d7"/>
  <text x="520" y="110" font-size="15" font-weight="bold" fill="white" text-anchor="middle">Malvarrosa</text>
  <rect x="200" y="340" width="140" height="50" rx="12" fill="#f4d06f"/>
  <text x="270" y="370" font-size="15" font-weight="bold" fill="#2d2d2d" text-anchor="middle">El Carmen</text>
  <rect x="550" y="280" width="150" height="60" rx="12" fill="#3d5a80"/>
  <text x="625" y="308" font-size="14" font-weight="bold" fill="white" text-anchor="middle">Artes y</text>
  <text x="625" y="326" font-size="14" font-weight="bold" fill="white" text-anchor="middle">Ciencias</text>
  <rect x="120" y="250" width="160" height="45" rx="12" fill="#e7a51f"/>
  <text x="200" y="278" font-size="15" font-weight="bold" fill="white" text-anchor="middle">Mercado Central</text>
  <rect x="400" y="160" width="140" height="50" rx="25" fill="#60b837"/>
  <text x="470" y="190" font-size="15" font-weight="bold" fill="white" text-anchor="middle">Turia Park</text>
  <rect x="500" y="170" width="140" height="45" rx="12" fill="#ffc107"/>
  <text x="570" y="198" font-size="15" font-weight="bold" fill="#2d2d2d" text-anchor="middle">Bioparc</text>
  <rect x="400" y="420" width="140" height="45" rx="12" fill="#ff6a5a"/>
  <text x="470" y="448" font-size="15" font-weight="bold" fill="white" text-anchor="middle">Ruzafa</text>
  <rect x="600" y="420" width="160" height="45" rx="22" fill="#90ca79"/>
  <text x="680" y="448" font-size="15" font-weight="bold" fill="white" text-anchor="middle">Albufera</text>
  <ellipse rx="60" ry="30" cx="100" cy="480" fill="#81c3d7"/>
  <text x="100" y="486" font-size="16" font-weight="bold" fill="white" text-anchor="middle">VLC</text>
  <text x="100" y="500" font-size="13" fill="white" text-anchor="middle">Airport</text>
</svg>