<?xml version="1.0" encoding="UTF-8"?>
<svg xmlns="http://www.w3.org/2000/svg" viewBox="0 0 800 600">
  <rect width="800" height="600" fill="#fff8f0"/>
  <text x="400" y="40" font-size="28" font-weight="bold" text-anchor="middle" fill="#3d5a80">Valencia - La Cabanyal</text>
  <rect x="200" y="100" width="120" height="60" rx="10" fill="#e07a5f"/>
  <text x="260" y="130" font-size="14" font-weight="bold" fill="white" text-anchor="middle">Airbnb</text>
  <text x="260" y="145" font-size="12" fill="white" text-anchor="middle">La Cabanyal</text>
  <rect x="450" y="80" width="140" height="50" rx="10" fill="#81c3d7"/>
  <text x="520" y="108" font-size="14" font-weight="bold" fill="white" text-anchor="middle">Malvarrosa</text>
  <path d="M 550,280 L 690,280 L 700,310 L 700,330 L 550,330 L 540,310 Z" fill="#3d5a80"/>
  <text x="620" y="308" font-size="12" font-weight="bold" fill="white" text-anchor="middle">Artes y</text>
  <text x="620" y="322" font-size="10" fill="white" text-anchor="middle">Ciencias</text>
  <rect x="200" y="320" width="140" height="50" rx="10" fill="#f4d06f"/>
  <text x="270" y="348" font-size="14" font-weight="bold" fill="#2d2d2d" text-anchor="middle">El Carmen</text>
  <rect x="120" y="240" width="160" height="40" rx="10" fill="#e7a51f"/>
  <text x="200" y="264" font-size="12" font-weight="bold" fill="white" text-anchor="middle">Mercado Central</text>
  <path d="M 400,250 L 500,230 L 520,250 L 420,270 Z" fill="#60b837"/>
  <text x="460" y="255" font-size="11" font-weight="bold" fill="white" text-anchor="middle">Turia</text>
  <rect x="500" y="150" width="140" height="40" rx="10" fill="#ffc107"/>
  <text x="570" y="175" font-size="14" font-weight="bold" fill="#2d2d2d" text-anchor="middle">Bioparc</text>
  <rect x="400" y="400" width="150" height="40" rx="10" fill="#ff6a5a"/>
  <text x="475" y="425" font-size="14" font-weight="bold" fill="white" text-anchor="middle">Ruzafa</text>
  <rect x="600" y="400" width="180" height="50" rx="50" fill="#90ca79"/>
  <text x="690" y="428" font-size="14" font-weight="bold" fill="white" text-anchor="middle">Albufera</text>
  <ellipse rx="60" ry="30" cx="100" cy="500" fill="#81c3d7"/>
  <text x="100" y="506" font-size="16" font-weight="bold" fill="white" text-anchor="middle">VLC</text>
  <text x="100" y="520" font-size="12" fill="white" text-anchor="middle">Airport</text>
  <line x1="320" y1="100" x2="520" y2="80" stroke="#999" stroke-width="2" stroke-dasharray="5,5"/>
  <text x="420" y="90" font-size="12" fill="#666">5 min</text>
  <line x1="260" y1="160" x2="270" y2="320" stroke="#999" stroke-width="2" stroke-dasharray="3,3"/>
  <text x="260" y="240" font-size="12" fill="#666">15 min metro</text>
</svg>